<?xml version="1.0" encoding="UTF-8"?>
<svg width="24px" height="18px" viewBox="0 0 24 18" version="1.1" xmlns="http://www.w3.org/2000/svg" xmlns:xlink="http://www.w3.org/1999/xlink">
    <!-- Generator: Sketch 56.3 (81716) - https://sketch.com -->
    <title>身份证</title>
    <desc>Created with Sketch.</desc>
    <defs>
        <linearGradient x1="0%" y1="36.6825344%" x2="100%" y2="63.3010966%" id="linearGradient-1">
            <stop stop-color="#58B2ED" offset="0%"></stop>
            <stop stop-color="#6184EA" offset="100%"></stop>
        </linearGradient>
    </defs>
    <g id="Final_0320" stroke="none" stroke-width="1" fill="none" fill-rule="evenodd">
        <g id="图鹰lp修改复制" transform="translate(-166.000000, -1321.000000)" fill="url(#linearGradient-1)" fill-rule="nonzero">
            <g id="编组-8" transform="translate(0.000000, 1098.000000)">
                <g id="第二页">
                    <g id="编组-7" transform="translate(142.000000, 193.000000)">
                        <g id="身份证" transform="translate(0.000000, -0.000000)">
                            <g id="内容" transform="translate(24.000000, 28.000000)">
                                <g id="编组-5">
                                    <g id="icon">
                                        <g id="身份证" transform="translate(0.000000, 2.000000)">
                                            <path d="M22.764,0.012 L1.236,0.012 C0.552,0.012 0,0.564 0,1.248 L0,16.032 C0,16.716 0.552,17.268 1.236,17.268 L22.764,17.268 C23.448,17.268 24,16.716 24,16.032 L24,1.248 C24,0.564 23.448,0.012 22.764,0.012 Z M8.844,9.78 C8.832,9.876 8.808,9.96 8.772,10.008 C8.748,10.044 8.688,10.08 8.58,10.104 C8.472,10.14 8.34,10.164 8.172,10.2 C8.016,10.224 7.836,10.26 7.644,10.284 C7.452,10.308 7.248,10.332 7.056,10.344 C6.864,10.356 6.672,10.38 6.48,10.38 C6.288,10.38 6.132,10.392 6,10.392 C5.868,10.392 5.7,10.392 5.52,10.38 C5.328,10.368 5.148,10.356 4.956,10.344 C4.764,10.332 4.572,10.308 4.38,10.284 C4.188,10.26 4.02,10.248 3.864,10.212 C3.708,10.188 3.576,10.164 3.468,10.14 C3.36,10.116 3.288,10.092 3.264,10.068 C3.216,10.032 3.18,9.912 3.156,9.72 C3.132,9.528 3.132,9.276 3.18,8.964 C3.204,8.784 3.276,8.652 3.396,8.568 C3.504,8.484 3.648,8.412 3.804,8.352 C3.96,8.292 4.116,8.244 4.284,8.208 C4.452,8.172 4.596,8.1 4.716,8.016 C4.812,7.944 4.896,7.884 4.944,7.836 C4.992,7.776 5.04,7.728 5.064,7.668 C5.088,7.608 5.1,7.548 5.1,7.488 C5.1,7.428 5.1,7.356 5.088,7.284 C5.076,7.176 5.04,7.08 4.968,7.02 C4.896,6.96 4.824,6.888 4.752,6.828 C4.716,6.792 4.68,6.744 4.644,6.684 C4.62,6.624 4.584,6.564 4.56,6.504 C4.536,6.432 4.512,6.36 4.488,6.276 C4.452,6.264 4.416,6.252 4.392,6.228 C4.368,6.204 4.332,6.168 4.308,6.132 C4.272,6.084 4.248,6.024 4.224,5.952 C4.2,5.88 4.188,5.796 4.188,5.736 C4.188,5.664 4.212,5.604 4.224,5.568 C4.248,5.508 4.272,5.46 4.32,5.412 C4.32,5.232 4.32,5.052 4.344,4.872 C4.368,4.716 4.404,4.548 4.452,4.38 C4.5,4.212 4.572,4.056 4.668,3.912 C4.752,3.78 4.86,3.672 4.968,3.588 C5.076,3.504 5.196,3.444 5.304,3.396 C5.424,3.348 5.532,3.312 5.652,3.3 C5.772,3.288 5.88,3.276 5.988,3.276 C6.276,3.276 6.528,3.336 6.744,3.456 C6.972,3.576 7.128,3.696 7.236,3.828 C7.356,3.984 7.452,4.152 7.512,4.332 C7.572,4.524 7.608,4.692 7.644,4.848 C7.668,5.04 7.68,5.22 7.68,5.412 C7.704,5.436 7.728,5.46 7.752,5.508 C7.764,5.544 7.788,5.58 7.8,5.64 C7.812,5.688 7.812,5.76 7.8,5.832 C7.788,5.928 7.764,6.012 7.728,6.072 C7.692,6.132 7.656,6.18 7.632,6.216 C7.596,6.252 7.548,6.276 7.5,6.288 C7.476,6.372 7.452,6.444 7.428,6.516 C7.404,6.576 7.38,6.636 7.344,6.696 C7.308,6.756 7.272,6.804 7.236,6.828 C7.188,6.864 7.152,6.9 7.116,6.924 C7.08,6.948 7.044,6.984 7.02,7.008 C6.996,7.044 6.972,7.068 6.948,7.116 C6.924,7.152 6.912,7.2 6.9,7.26 C6.888,7.332 6.888,7.404 6.888,7.476 C6.888,7.548 6.912,7.62 6.948,7.692 C6.984,7.764 7.032,7.836 7.116,7.896 C7.188,7.968 7.296,8.016 7.428,8.076 C7.548,8.124 7.68,8.172 7.812,8.208 C7.956,8.244 8.088,8.292 8.22,8.34 C8.352,8.388 8.472,8.448 8.568,8.532 C8.676,8.604 8.748,8.712 8.784,8.832 C8.808,8.904 8.82,9 8.844,9.12 C8.856,9.228 8.868,9.348 8.868,9.456 C8.868,9.576 8.856,9.684 8.844,9.78 Z M20.58,13.476 L3.732,13.476 C3.432,13.476 3.18,13.224 3.18,12.912 C3.18,12.6 3.432,12.348 3.732,12.348 L20.58,12.348 C20.88,12.348 21.132,12.6 21.132,12.912 C21.132,13.224 20.892,13.476 20.58,13.476 L20.58,13.476 Z M20.58,9.036 L11.412,9.036 C11.112,9.036 10.86,8.808 10.86,8.52 C10.86,8.232 11.112,8.004 11.412,8.004 L20.58,8.004 C20.88,8.004 21.132,8.232 21.132,8.52 C21.132,8.808 20.892,9.036 20.58,9.036 L20.58,9.036 Z M20.58,5.04 L11.412,5.04 C11.112,5.04 10.86,4.788 10.86,4.476 C10.86,4.164 11.112,3.912 11.412,3.912 L20.58,3.912 C20.88,3.912 21.132,4.164 21.132,4.476 C21.132,4.788 20.892,5.04 20.58,5.04 L20.58,5.04 Z" id="Shape"></path>
                                        </g>
                                    </g>
                                </g>
                            </g>
                        </g>
                    </g>
                </g>
            </g>
        </g>
    </g>
</svg>